<svg width="297" height="342" viewBox="0 0 297 342" fill="none" xmlns="http://www.w3.org/2000/svg">
<path d="M22.8822 336.619C16.3543 338.335 11.0288 336.962 6.9059 332.501C3.12655 328.041 0.8933 321.178 0.206146 311.913C-0.481008 302.648 0.549725 291.668 3.29834 278.972C5.01623 274.854 6.39053 270.908 7.42127 267.133C8.452 263.016 8.96736 259.756 8.96736 257.354C9.65452 253.923 11.0288 248.947 13.0903 242.427C15.1517 235.565 17.385 228.53 19.7901 221.324C22.1951 214.118 24.4283 207.77 26.4898 202.28C28.8948 196.447 30.4409 192.844 31.1281 191.471C32.5024 191.471 33.7049 190.27 34.7357 187.868C35.7664 185.466 36.2817 183.064 36.2817 180.662C36.2817 177.917 36.7971 174.829 37.8278 171.398C39.2022 167.966 40.5765 165.564 41.9508 164.192C41.9508 162.476 42.2943 160.589 42.9815 158.53C44.0122 156.128 44.5276 154.241 44.5276 152.868C44.5276 151.496 44.8712 150.123 45.5583 148.751C46.5891 147.378 47.1044 146.005 47.1044 144.633C49.5095 140.172 52.6017 133.138 56.381 123.53C60.5039 113.579 64.7986 102.598 69.2651 90.5886C74.0752 78.5787 78.5417 66.7405 82.6646 55.0737C86.7876 43.407 90.0516 33.6276 92.4566 25.7354C95.2052 17.5001 96.5795 12.5246 96.5795 10.8089C96.5795 8.06376 97.2667 6.00493 98.641 4.63237C100.015 3.25982 102.077 2.57354 104.825 2.57354C105.856 1.54413 107.059 0.857857 108.433 0.514701C110.151 0.171567 111.697 0 113.071 0C113.071 0 113.758 0.686279 115.133 2.05883C116.507 3.43139 118.568 5.49024 121.317 8.23535C124.066 10.6373 125.612 13.3824 125.955 16.4707C126.643 19.5589 126.986 23.1619 126.986 27.2795C126.986 31.7403 126.471 35.6864 125.44 39.1178C124.409 42.5492 122.348 47.5247 119.256 54.0443C116.163 60.564 111.353 70.6866 104.825 84.4121C102.077 91.2749 99.1563 97.7945 96.0642 103.971C92.972 109.804 91.4259 113.407 91.4259 114.78C91.4259 116.152 90.7387 118.211 89.3644 120.956C88.3337 123.701 87.1312 127.133 85.7568 131.251C84.3825 133.996 82.4929 138.113 80.0878 143.603C77.6828 148.751 75.106 154.412 72.3573 160.589C69.9523 166.422 67.8908 171.569 66.173 176.03C64.4551 180.148 63.5961 182.55 63.5961 183.236C63.5961 184.609 63.4243 185.981 63.0808 187.354C63.0808 188.726 62.3936 190.099 61.0193 191.471C59.645 191.471 58.786 192.501 58.4425 194.56C58.4425 196.275 58.4425 197.133 58.4425 197.133C58.4425 200.565 55.6939 209.658 50.1966 224.413C44.6994 243.285 39.5457 260.614 34.7357 276.398C30.2692 292.183 28.0359 304.879 28.0359 314.487C28.0359 322.722 27.8641 328.212 27.5205 330.957C27.177 333.359 25.6309 335.246 22.8822 336.619ZM102.736 312.428C99.3 310.369 96.7231 308.31 95.0052 306.251C93.2874 304.192 92.4284 301.276 92.4284 297.501C92.4284 292.354 93.1156 287.035 94.4899 281.545C95.8642 275.712 97.2385 270.05 98.6128 264.56C99.3 258.383 100.159 252.207 101.19 246.03C102.564 239.511 104.969 233.506 108.405 228.016C112.184 214.976 116.135 202.109 120.258 189.413C124.381 176.373 127.989 162.991 131.081 149.265C135.547 136.569 139.498 125.417 142.934 115.809C146.714 105.858 151.352 93.3337 156.849 78.2356C159.941 69.6571 162.518 60.564 164.58 50.9561C166.985 41.0051 170.592 32.0835 175.403 24.1913C177.464 21.103 179.011 18.5295 180.041 16.4707C181.416 14.0687 182.79 11.8383 184.164 9.77945C184.508 8.4069 185.538 7.54905 187.256 7.20591C189.318 6.86277 191.551 7.03434 193.956 7.7206C196.361 8.4069 198.251 9.60788 199.625 11.3236C200.656 10.9805 201.858 12.0099 203.233 14.4118C204.951 16.4707 206.497 18.8726 207.871 21.6177C209.245 24.3628 209.761 26.7648 209.417 28.8236C209.417 30.1962 209.073 32.0835 208.386 34.4854C208.043 36.8874 207.184 39.1178 205.81 41.1766C204.435 42.5492 203.061 44.608 201.687 47.3531C200.656 49.7551 198.938 53.1865 196.533 57.6473C195.159 62.1081 193.956 66.7405 192.925 71.5444C191.895 76.0052 190.52 80.1229 188.802 83.8974C187.428 88.0151 185.71 91.9611 183.649 95.7357C181.931 99.5102 180.728 102.598 180.041 105C177.636 112.893 174.716 120.613 171.28 128.162C168.187 135.711 165.439 143.775 163.033 152.354C160.628 160.589 158.223 169.167 155.818 178.089C153.413 186.667 149.978 194.903 145.511 202.795C143.106 206.569 141.388 211.373 140.357 217.207C139.327 223.04 138.296 228.873 137.265 234.707C135.204 240.883 133.314 246.717 131.596 252.207C130.222 257.354 129.535 260.614 129.535 261.986C127.473 269.535 125.927 277.084 124.896 284.633C124.209 291.839 122.491 298.187 119.743 303.678C119.399 307.109 118.712 309.854 117.681 311.913C116.651 313.972 114.933 315.173 112.528 315.516C110.123 315.516 106.859 314.487 102.736 312.428ZM182.074 341.251C177.607 339.536 174.343 336.962 172.282 333.531C170.22 329.756 169.018 324.438 168.674 317.575C168.674 313.457 169.361 307.967 170.736 301.104C172.11 294.241 173.656 286.349 175.374 277.428C175.374 276.741 175.374 276.055 175.374 275.369C175.717 274.339 175.889 273.653 175.889 273.31C176.233 271.937 176.576 269.879 176.92 267.133C177.607 264.388 178.122 262.329 178.466 260.957C178.81 259.241 178.981 259.241 178.981 260.957L182.589 247.06C184.307 240.883 186.025 234.707 187.743 228.53C189.46 222.354 191.007 217.035 192.381 212.574C193.755 207.77 194.614 205.025 194.958 204.339C194.958 204.339 195.645 202.452 197.019 198.677C198.393 194.56 199.768 190.613 201.142 186.839C206.983 170.711 212.308 157.157 217.118 146.177C221.928 134.853 226.223 126.618 230.002 121.471C230.346 120.442 230.861 119.241 231.549 117.868C232.236 116.152 232.751 114.78 233.095 113.75C233.438 111.005 233.782 108.947 234.125 107.574C234.813 105.858 235.671 104.314 236.702 102.942C237.389 101.569 238.42 99.8533 239.794 97.7945C241.169 95.3925 242.715 92.4759 244.433 89.0445L246.494 83.3827C248.556 78.9219 251.132 73.9464 254.225 68.4562C257.317 62.9659 259.55 59.0198 260.924 56.6179C262.299 53.5296 264.36 49.9267 267.109 45.809C269.857 41.3482 271.919 38.4315 273.293 37.059L272.778 36.5443C274.496 33.456 276.557 31.7403 278.962 31.3972C281.711 30.7109 284.631 30.3678 287.723 30.3678C292.533 30.3678 295.282 31.054 295.969 32.4266C296.656 33.7992 297 36.8874 297 41.6913C297 46.8384 296.828 50.6129 296.485 53.0149C296.485 55.0737 295.11 57.4757 292.362 60.2208H292.877C293.564 59.5345 293.392 60.3924 292.362 62.7944C291.331 64.8532 290.472 66.3973 289.785 67.4267C289.098 69.1424 288.239 71.0297 287.208 73.0885C286.521 75.1474 285.662 76.6915 284.631 77.7209C283.601 79.0934 281.024 83.7258 276.901 91.618C273.121 99.1671 268.655 108.089 263.501 118.383C258.691 128.677 254.053 138.628 249.586 148.236C245.12 157.844 241.856 165.221 239.794 170.368L237.218 178.089C236.53 179.461 236.187 180.491 236.187 181.177C235.156 183.579 234.125 185.981 233.095 188.383C232.064 190.785 231.033 192.844 230.002 194.56L221.241 224.413L218.664 235.222L214.026 246.545L210.934 256.325C210.247 258.383 209.731 260.271 209.388 261.986C209.044 263.702 208.357 265.075 207.326 266.104C207.326 266.447 207.155 266.962 206.811 267.648C206.811 267.991 206.811 268.334 206.811 268.678C205.437 274.168 203.891 281.888 202.173 291.839C200.455 301.79 199.252 312.256 198.565 323.237C198.565 323.58 198.393 323.923 198.05 324.266C198.05 324.609 198.05 324.952 198.05 325.295C197.019 332.501 195.301 337.305 192.896 339.707C190.491 342.109 186.884 342.624 182.074 341.251Z" fill="white"/>
</svg>
